<svg xmlns="http://www.w3.org/2000/svg" viewBox="0 0 1200 750" font-family="'Inter', 'Segoe UI', Arial, sans-serif">
  <defs>
    <filter id="cardShadow">
      <feDropShadow dx="0" dy="2" stdDeviation="4" flood-color="#00000040"/>
    </filter>
  </defs>

  <!-- Fondo oscuro de dashboard -->
  <rect width="1200" height="750" fill="#1A1A2E"/>

  <!-- ====== HEADER ====== -->
  <rect width="1200" height="60" fill="#1B4332"/>
  <!-- Logo -->
  <circle cx="30" cy="30" r="8" fill="#52B788"/>
  <text x="45" y="35" font-size="16" fill="white" font-weight="700">● RESPIRA</text>
  <!-- Título central -->
  <text x="600" y="22" font-size="13" fill="#A8DADC" text-anchor="middle">RED DE SENSORES AMBIENTALES</text>
  <text x="600" y="42" font-size="15" fill="white" font-weight="700" text-anchor="middle">Instituto San Carlos de La Salle — Medellín</text>
  <!-- Estado nodo activo -->
  <circle cx="1100" cy="28" r="6" fill="#52B788"/>
  <text x="1115" y="33" font-size="12" fill="#52B788" font-weight="700">Nodo Activo</text>
  <text x="1080" y="50" font-size="10" fill="#A8DADC">Última sync: hace 32s</text>

  <!-- ====== PANEL IZQUIERDO — MAPA ====== -->
  <rect x="0" y="60" width="300" height="630" fill="#0D1117" stroke="#2D6A4F" stroke-width="1"/>
  <text x="150" y="90" font-size="13" fill="#52B788" font-weight="700" text-anchor="middle">Ubicación del Nodo</text>

  <!-- Mapa placeholder -->
  <rect x="15" y="100" width="270" height="200" rx="6" fill="#1C2128"/>
  <!-- Cuadrícula del mapa -->
  <line x1="15" y1="133" x2="285" y2="133" stroke="#2D6A4F" stroke-width="0.5" opacity="0.4"/>
  <line x1="15" y1="166" x2="285" y2="166" stroke="#2D6A4F" stroke-width="0.5" opacity="0.4"/>
  <line x1="15" y1="199" x2="285" y2="199" stroke="#2D6A4F" stroke-width="0.5" opacity="0.4"/>
  <line x1="15" y1="232" x2="285" y2="232" stroke="#2D6A4F" stroke-width="0.5" opacity="0.4"/>
  <line x1="15" y1="265" x2="285" y2="265" stroke="#2D6A4F" stroke-width="0.5" opacity="0.4"/>
  <line x1="82" y1="100" x2="82" y2="300" stroke="#2D6A4F" stroke-width="0.5" opacity="0.4"/>
  <line x1="150" y1="100" x2="150" y2="300" stroke="#2D6A4F" stroke-width="0.5" opacity="0.4"/>
  <line x1="218" y1="100" x2="218" y2="300" stroke="#2D6A4F" stroke-width="0.5" opacity="0.4"/>
  <!-- Calles simuladas -->
  <line x1="15" y1="195" x2="285" y2="195" stroke="#2D6A4F" stroke-width="1.5" opacity="0.3"/>
  <line x1="150" y1="100" x2="150" y2="300" stroke="#2D6A4F" stroke-width="1.5" opacity="0.3"/>
  <!-- Punto ISC -->
  <circle cx="150" cy="195" r="10" fill="#52B788" opacity="0.3"/>
  <circle cx="150" cy="195" r="6" fill="#52B788"/>
  <circle cx="150" cy="195" r="3" fill="white"/>
  <text x="165" y="190" font-size="9" fill="#52B788">● ISC Medellín</text>
  <!-- Estaciones SIATA -->
  <circle cx="100" cy="155" r="4" fill="#E9C46A" opacity="0.7"/>
  <text x="108" y="152" font-size="8" fill="#E9C46A" opacity="0.7">SIATA Belén</text>
  <circle cx="210" cy="240" r="4" fill="#E9C46A" opacity="0.7"/>
  <text x="175" y="250" font-size="8" fill="#E9C46A" opacity="0.7">SIATA Poblado</text>

  <!-- Coordenadas -->
  <text x="150" y="318" font-size="10" fill="#A8DADC" text-anchor="middle">Lat: 6.2518° N</text>
  <text x="150" y="334" font-size="10" fill="#A8DADC" text-anchor="middle">Lon: 75.5636° O</text>
  <text x="150" y="350" font-size="10" fill="#A8DADC" text-anchor="middle">Alt: 1495 m.s.n.m.</text>

  <!-- Info nodo -->
  <rect x="15" y="365" width="270" height="55" rx="6" fill="#161B22"/>
  <text x="25" y="385" font-size="10" fill="#52B788" font-weight="700">NODO #001 — ISC</text>
  <text x="25" y="402" font-size="10" fill="#A8DADC">Estado: ● En línea</text>
  <text x="25" y="417" font-size="10" fill="#A8DADC">Uptime: 14h 32min</text>

  <!-- Energía del sistema -->
  <rect x="15" y="430" width="270" height="80" rx="6" fill="#161B22"/>
  <text x="25" y="450" font-size="10" fill="#52B788" font-weight="700">Energía del Sistema</text>
  <!-- Barra batería -->
  <rect x="25" y="460" width="230" height="14" rx="4" fill="#2D3748"/>
  <rect x="25" y="460" width="193" height="14" rx="4" fill="#52B788"/>
  <text x="140" y="472" font-size="9" fill="white" text-anchor="middle">84% — 1848 mAh</text>
  <text x="25" y="500" font-size="10" fill="#A8DADC">Potencia eólica: 84 mWh</text>

  <!-- Alertas -->
  <rect x="15" y="520" width="270" height="100" rx="6" fill="#161B22"/>
  <text x="25" y="540" font-size="10" fill="#52B788" font-weight="700">Historial de Alertas</text>
  <text x="25" y="558" font-size="9" fill="#A8DADC">● 13:22 — PM2.5 en rango normal</text>
  <text x="25" y="574" font-size="9" fill="#E9C46A">● 11:45 — PM10 elevado (62 µg)</text>
  <text x="25" y="590" font-size="9" fill="#A8DADC">● 09:00 — Sistema iniciado</text>
  <text x="25" y="610" font-size="9" fill="#52B788">● Sin alertas críticas hoy</text>

  <!-- ====== PANEL CENTRAL SUPERIOR — MÉTRICAS ====== -->

  <!-- PM2.5 -->
  <rect x="308" y="68" width="134" height="115" rx="8" fill="#161B22" filter="url(#cardShadow)"/>
  <text x="375" y="92" font-size="12" fill="#A8DADC" text-anchor="middle">PM2.5</text>
  <text x="375" y="128" font-size="28" fill="white" font-weight="700" text-anchor="middle">23</text>
  <text x="375" y="148" font-size="11" fill="#A8DADC" text-anchor="middle">µg/m³</text>
  <rect x="325" y="158" width="100" height="18" rx="9" fill="#E9C46A"/>
  <text x="375" y="171" font-size="10" fill="#1A1A2E" font-weight="700" text-anchor="middle">ACEPTABLE</text>

  <!-- Temperatura -->
  <rect x="450" y="68" width="134" height="115" rx="8" fill="#161B22" filter="url(#cardShadow)"/>
  <text x="517" y="92" font-size="12" fill="#A8DADC" text-anchor="middle">Temperatura</text>
  <text x="517" y="128" font-size="28" fill="white" font-weight="700" text-anchor="middle">22.4</text>
  <text x="517" y="148" font-size="11" fill="#A8DADC" text-anchor="middle">°C</text>
  <rect x="467" y="158" width="100" height="18" rx="9" fill="#52B788" opacity="0.7"/>
  <text x="517" y="171" font-size="10" fill="white" font-weight="700" text-anchor="middle">NORMAL</text>

  <!-- Humedad -->
  <rect x="592" y="68" width="134" height="115" rx="8" fill="#161B22" filter="url(#cardShadow)"/>
  <text x="659" y="92" font-size="12" fill="#A8DADC" text-anchor="middle">Humedad</text>
  <text x="659" y="128" font-size="28" fill="white" font-weight="700" text-anchor="middle">68</text>
  <text x="659" y="148" font-size="11" fill="#A8DADC" text-anchor="middle">%</text>
  <rect x="609" y="158" width="100" height="18" rx="9" fill="#52B788" opacity="0.7"/>
  <text x="659" y="171" font-size="10" fill="white" font-weight="700" text-anchor="middle">NORMAL</text>

  <!-- Presión -->
  <rect x="734" y="68" width="134" height="115" rx="8" fill="#161B22" filter="url(#cardShadow)"/>
  <text x="801" y="92" font-size="12" fill="#A8DADC" text-anchor="middle">Presión</text>
  <text x="801" y="128" font-size="28" fill="white" font-weight="700" text-anchor="middle">752</text>
  <text x="801" y="148" font-size="11" fill="#A8DADC" text-anchor="middle">hPa</text>
  <rect x="751" y="158" width="100" height="18" rx="9" fill="#2D6A4F"/>
  <text x="801" y="171" font-size="10" fill="white" font-weight="700" text-anchor="middle">ESTABLE</text>

  <!-- Energía -->
  <rect x="876" y="68" width="134" height="115" rx="8" fill="#161B22" filter="url(#cardShadow)"/>
  <text x="943" y="92" font-size="12" fill="#A8DADC" text-anchor="middle">Energía</text>
  <text x="943" y="128" font-size="28" fill="white" font-weight="700" text-anchor="middle">84</text>
  <text x="943" y="148" font-size="11" fill="#A8DADC" text-anchor="middle">mWh</text>
  <rect x="893" y="158" width="100" height="18" rx="9" fill="#E9C46A"/>
  <text x="943" y="171" font-size="10" fill="#1A1A2E" font-weight="700" text-anchor="middle">EÓLICA</text>

  <!-- ====== GRÁFICO SERIE TEMPORAL (Panel central inferior) ====== -->
  <rect x="308" y="193" width="702" height="430" rx="8" fill="#161B22" filter="url(#cardShadow)"/>
  <text x="325" y="220" font-size="13" fill="white" font-weight="700">PM2.5 — Serie Temporal (últimas 24 horas)</text>
  <text x="325" y="238" font-size="10" fill="#A8DADC">Comparativa pre-filtrado vs post-filtrado</text>

  <!-- Ejes -->
  <!-- Eje Y -->
  <line x1="370" y1="260" x2="370" y2="530" stroke="#2D3748" stroke-width="1.5"/>
  <!-- Eje X -->
  <line x1="370" y1="530" x2="980" y2="530" stroke="#2D3748" stroke-width="1.5"/>

  <!-- Etiquetas eje Y -->
  <text x="362" y="265" font-size="9" fill="#A8DADC" text-anchor="end">80</text>
  <text x="362" y="330" font-size="9" fill="#A8DADC" text-anchor="end">60</text>
  <text x="362" y="395" font-size="9" fill="#A8DADC" text-anchor="end">40</text>
  <text x="362" y="460" font-size="9" fill="#A8DADC" text-anchor="end">20</text>
  <text x="362" y="532" font-size="9" fill="#A8DADC" text-anchor="end">0</text>
  <text x="340" y="400" font-size="9" fill="#A8DADC" text-anchor="middle" transform="rotate(-90,340,400)">µg/m³</text>

  <!-- Líneas de cuadrícula horizontales -->
  <line x1="370" y1="265" x2="980" y2="265" stroke="#2D3748" stroke-width="0.5" stroke-dasharray="4,4"/>
  <line x1="370" y1="330" x2="980" y2="330" stroke="#2D3748" stroke-width="0.5" stroke-dasharray="4,4"/>
  <line x1="370" y1="395" x2="980" y2="395" stroke="#2D3748" stroke-width="0.5" stroke-dasharray="4,4"/>
  <line x1="370" y1="460" x2="980" y2="460" stroke="#2D3748" stroke-width="0.5" stroke-dasharray="4,4"/>

  <!-- Etiquetas eje X (horas) -->
  <text x="370" y="546" font-size="8" fill="#A8DADC" text-anchor="middle">00:00</text>
  <text x="447" y="546" font-size="8" fill="#A8DADC" text-anchor="middle">03:00</text>
  <text x="524" y="546" font-size="8" fill="#A8DADC" text-anchor="middle">06:00</text>
  <text x="601" y="546" font-size="8" fill="#A8DADC" text-anchor="middle">09:00</text>
  <text x="678" y="546" font-size="8" fill="#A8DADC" text-anchor="middle">12:00</text>
  <text x="755" y="546" font-size="8" fill="#A8DADC" text-anchor="middle">15:00</text>
  <text x="832" y="546" font-size="8" fill="#A8DADC" text-anchor="middle">18:00</text>
  <text x="909" y="546" font-size="8" fill="#A8DADC" text-anchor="middle">21:00</text>
  <text x="980" y="546" font-size="8" fill="#A8DADC" text-anchor="middle">24:00</text>

  <!-- Línea PRE-filtrado (naranja/rojo) — valores más altos -->
  <polyline points="370,430 447,410 524,390 601,360 678,340 755,355 832,370 909,385 980,400" fill="none" stroke="#E76F51" stroke-width="2.5"/>

  <!-- Línea POST-filtrado (verde) — valores más bajos -->
  <polyline points="370,490 447,475 524,462 601,445 678,438 755,450 832,458 909,465 980,472" fill="none" stroke="#52B788" stroke-width="2.5"/>

  <!-- Área post-filtrado (relleno semi-transparente) -->
  <polygon points="370,530 370,490 447,475 524,462 601,445 678,438 755,450 832,458 909,465 980,472 980,530" fill="#52B788" fill-opacity="0.1"/>

  <!-- Punto actual en serie post-filtrado -->
  <circle cx="980" cy="472" r="5" fill="#52B788"/>

  <!-- Leyenda gráfico -->
  <line x1="620" y1="590" x2="650" y2="590" stroke="#E76F51" stroke-width="2.5"/>
  <text x="656" y="595" font-size="11" fill="#E76F51">Pre-filtrado</text>
  <line x1="740" y1="590" x2="770" y2="590" stroke="#52B788" stroke-width="2.5"/>
  <text x="776" y="595" font-size="11" fill="#52B788">Post-filtrado</text>

  <!-- ====== PANEL DERECHO — ESCALA ICA ====== -->
  <rect x="1020" y="60" width="180" height="630" fill="#0D1117" stroke="#2D6A4F" stroke-width="1"/>
  <text x="1110" y="90" font-size="12" fill="#52B788" font-weight="700" text-anchor="middle">Escala ICA</text>
  <text x="1110" y="106" font-size="9" fill="#A8DADC" text-anchor="middle">Índice Calidad del Aire</text>

  <!-- Bandas ICA -->
  <rect x="1030" y="115" width="160" height="60" rx="4" fill="#00E400"/>
  <text x="1110" y="140" font-size="11" fill="#006600" font-weight="700" text-anchor="middle">0 – 50</text>
  <text x="1110" y="157" font-size="10" fill="#004400" font-weight="700" text-anchor="middle">BUENO</text>

  <rect x="1030" y="182" width="160" height="60" rx="4" fill="#FFFF00"/>
  <text x="1110" y="207" font-size="11" fill="#666600" font-weight="700" text-anchor="middle">51 – 100</text>
  <text x="1110" y="224" font-size="10" fill="#555500" font-weight="700" text-anchor="middle">ACEPTABLE</text>

  <rect x="1030" y="249" width="160" height="60" rx="4" fill="#FF7E00"/>
  <text x="1110" y="274" font-size="11" fill="white" font-weight="700" text-anchor="middle">101 – 150</text>
  <text x="1110" y="291" font-size="9" fill="white" font-weight="700" text-anchor="middle">DAÑINO SENSIBLES</text>

  <rect x="1030" y="316" width="160" height="60" rx="4" fill="#FF0000"/>
  <text x="1110" y="341" font-size="11" fill="white" font-weight="700" text-anchor="middle">151 – 200</text>
  <text x="1110" y="358" font-size="10" fill="white" font-weight="700" text-anchor="middle">DAÑINO</text>

  <rect x="1030" y="383" width="160" height="60" rx="4" fill="#8F3F97"/>
  <text x="1110" y="408" font-size="11" fill="white" font-weight="700" text-anchor="middle">201 – 300</text>
  <text x="1110" y="425" font-size="10" fill="white" font-weight="700" text-anchor="middle">MUY DAÑINO</text>

  <rect x="1030" y="450" width="160" height="60" rx="4" fill="#7E0023"/>
  <text x="1110" y="475" font-size="11" fill="white" font-weight="700" text-anchor="middle">301+</text>
  <text x="1110" y="492" font-size="10" fill="white" font-weight="700" text-anchor="middle">PELIGROSO</text>

  <!-- Indicador actual -->
  <rect x="1030" y="520" width="160" height="50" rx="6" fill="#161B22" stroke="#E9C46A" stroke-width="2"/>
  <text x="1110" y="541" font-size="10" fill="#E9C46A" font-weight="700" text-anchor="middle">ICA Actual: 72</text>
  <text x="1110" y="558" font-size="10" fill="#E9C46A" text-anchor="middle">Aceptable</text>

  <text x="1110" y="590" font-size="9" fill="#A8DADC" text-anchor="middle">Fuente: IDEAM</text>
  <text x="1110" y="605" font-size="9" fill="#A8DADC" text-anchor="middle">Colombia 2023</text>
  <text x="1110" y="620" font-size="9" fill="#A8DADC" text-anchor="middle">PM2.5: estándar anual</text>
  <text x="1110" y="635" font-size="9" fill="#A8DADC" text-anchor="middle">12 µg/m³ OMS 2021</text>

  <!-- ====== FOOTER ====== -->
  <rect x="0" y="700" width="1200" height="50" fill="#1B4332"/>
  <text x="600" y="730" font-size="11" fill="white" text-anchor="middle">Datos indicativos — Red RESPIRA · Instituto San Carlos de La Salle · Actualizado: 26/05/2026 14:32</text>
</svg>
